# xmcd
#
# Track frame offsets: 
#        150
#        29434
#        42069
#        61926
#        74272
#
# Disc length: 1230 seconds
#
# Revision: 0
# Processed by: cddbd v1.5.2PL0 Copyright (c) Steve Scherf et al.
# Submitted via: ExactAudioCopy v1.0b1
#
DISCID=3c04cc05
DTITLE=Punch Brothers - Ahoy!
DYEAR=2012
DGENRE=Bluegrass
TTITLE0=Another New World
TTITLE1=Down Along the Dixie Line
TTITLE2=Moonshiner
TTITLE3=Squirrel of Possibility
TTITLE4=Icarus Smicarus
EXTD=
EXTT0=
EXTT1=
EXTT2=
EXTT3=
EXTT4=
PLAYORDER=
